# xmcd
#
# Track frame offsets:
#	150
#	12950
#	25350
#	36075
#	50557
#	62310
#	73930
#	85892
#	97595
#	110127
#	122917
#	134872
#	145165
#	156062
#	167810
#	182157
#	194487
#	206927
#	219292
#	233032
#	243155
#	254047
#	265937
#	277577
#
# Disc length: 3840
#
# Revision: 4
# Processed by: cddbd v1.5.1PL0 Copyright (c) Steve Scherf et al.
# Submitted via: ExactAudioCopy v0.90a11
# Normalized: r3:DSETVAR1
#
DISCID=630efe18
DTITLE=Various Artist - Country USA - 1961
DYEAR=1900
DGENRE=Country
TTITLE0=Patsy Cline - I Fall To Pieces
TTITLE1=Ray Price - Heart Over Mind
TTITLE2=Leroy Van Dyke - Walk On By
TTITLE3=Marty Robbins - Don't Worry
TTITLE4=Johnny Horton - Sleepy-Eyed John
TTITLE5=Sketter Davis - My Last Date (With You)
TTITLE6=Buck Owens - Foolin' Around
TTITLE7=George Jones - The Window Up Above
TTITLE8=Bill Anderson - Po' Folks
TTITLE9=Hank Snow - Beggar To A King
TTITLE10=Kitty Wells - Heartbreak U.S.A.
TTITLE11=Don Gibson - Sweet Dreams
TTITLE12=Faron Young - Hello Walls
TTITLE13=Rusty and Doug - Louisiana Man
TTITLE14=Tex Ritter - I Dreamed Of A Hill-Billy Heaven
TTITLE15=Roy Drusky - Three Hearts In A Tangle
TTITLE16=Hank Thompson - Oklahoma Hills
TTITLE17=Patsy Cline - Crazy
TTITLE18=Jimmy Dean - Big Bad John
TTITLE19=Porter Wagoner - Your Old Love Letters
TTITLE20=George Jones - Tender Years
TTITLE21=Wanda Jackson - Right Or Wrong
TTITLE22=Don Gibson - Sea Of Heartbreak
TTITLE23=Buck Owens - Under The Influence Of Love
EXTD=ID3G:   2
EXTT0=Patsy Cline
EXTT1=Ray Price
EXTT2=Leroy Van Dyke
EXTT3=Marty Robbins
EXTT4=Johnny Horton
EXTT5=Skeeter Davis
EXTT6=Buck Owens
EXTT7=George Jones
EXTT8=Bill Anderson
EXTT9=Hank Snow
EXTT10=Kitty Wells
EXTT11=Don Gibson
EXTT12=Faron Young
EXTT13=Rusty and Doug
EXTT14=Tex Ritter
EXTT15=Roy Drusky
EXTT16=Hank Thompson
EXTT17=Patsy Cline
EXTT18=Jimmy Dean
EXTT19=Porter Wagoner
EXTT20=George Jones
EXTT21=Wanda Jackson
EXTT22=Don Gibson
EXTT23=Buck Owens
PLAYORDER=
